<svg width="18" height="20" viewBox="0 0 18 20" fill="none" xmlns="http://www.w3.org/2000/svg">
<path fill-rule="evenodd" clip-rule="evenodd" d="M4 5C4 7.76 6.24 10 9 10C11.76 10 14 7.76 14 5C14 2.24 11.76 0 9 0C6.24 0 4 2.24 4 5ZM6 5C6 3.35 7.35 2 9 2C10.65 2 12 3.35 12 5C12 6.65 10.65 8 9 8C7.35 8 6 6.65 6 5ZM16 19C16 19.55 16.45 20 17 20C17.55 20 18 19.55 18 19V17C18 14.24 15.76 12 13 12H5C2.24 12 0 14.24 0 17V19C0 19.55 0.45 20 1 20C1.55 20 2 19.55 2 19V17C2 15.35 3.35 14 5 14H13C14.65 14 16 15.35 16 17V19Z" fill="#6B6B6B"/>
</svg>
